<?xml version="1.0" encoding="utf-8"?>
<!-- Generator: Adobe Illustrator 16.0.0, SVG Export Plug-In . SVG Version: 6.00 Build 0)  -->
<!DOCTYPE svg PUBLIC "-//W3C//DTD SVG 1.1//EN" "http://www.w3.org/Graphics/SVG/1.1/DTD/svg11.dtd">
<svg version="1.1" id="Capa_1" xmlns="http://www.w3.org/2000/svg" xmlns:xlink="http://www.w3.org/1999/xlink" x="0px" y="0px"
	 width="512px" height="408px" viewBox="0 0 512 408" enable-background="new 0 0 512 408" xml:space="preserve">
<path d="M56.481,53.32C55.515,25.58,77.128,0,106.342,0h299.354c29.214,0,50.827,25.58,49.859,53.32
	c-0.928,26.647,0.277,61.165,8.964,89.31c8.717,28.232,23.411,46.077,47.48,48.37v26c-24.069,2.293-38.765,20.139-47.48,48.37
	c-8.687,28.146-9.892,62.663-8.964,89.311C456.522,382.42,434.909,408,405.695,408H106.342c-29.214,0-50.827-25.58-49.86-53.319
	c0.927-26.646-0.278-61.165-8.966-89.311C38.802,237.139,24.07,219.293,0,217v-26c24.069-2.293,38.802-20.138,47.516-48.37
	C56.204,114.485,57.409,79.967,56.481,53.32z"/>
<text transform="matrix(1 0 0 1 79.5 291.5)" fill="#FF8B00" font-family="'MyriadPro-Regular'" font-size="280">SU</text>
</svg>
